# xmcd
#
# Track frame offsets:
#	150
#	14437
#	29017
#	39270
#	51139
#	70245
#	80500
#	91512
#	103450
#	108640
#	125679
#	139702
#	155045
#	167427
#	178927
#	191190
#
# Disc length: 2670
#
# Revision: 1
# Processed by: cddbd v1.5.1PL0 Copyright (c) Steve Scherf et al.
# Submitted via: dBpowerAMP V4.0
# Normalized: r0:TDELIM( - )
#
DISCID=e10a6c10
DTITLE=Various Artist - Country Collection I
DYEAR=1900
DGENRE=Country
TTITLE0=Ronnie Milsap - Denver
TTITLE1=Carl Perkins - Redneck
TTITLE2=Barbara Mandrell - Kawliga
TTITLE3=Lynn Anderson - Crying
TTITLE4=Alabama - I Want To Be With You Tonight
TTITLE5=Billy Jo Spears - It Makes No Difference Now
TTITLE6=Loretta Lynn - Crazy
TTITLE7=Waylon Jennings - Don't Think Twice
TTITLE8=Buck Owens - Right After The Dance
TTITLE9=Kenny Rogers - Something's Burning
TTITLE10=George Jones - Things Have Gone To Pieces
TTITLE11=Doug Kershaw - Mistakes By Number
TTITLE12=Don Williams - There's Never Been A Time
TTITLE13=Del Shannon - I Can't Help It
TTITLE14=Sandy Posey - Because Of You
TTITLE15=Willie Nelson - One Step Beyond
EXTD=
EXTT0=
EXTT1=
EXTT2=
EXTT3=
EXTT4=
EXTT5=
EXTT6=
EXTT7=
EXTT8=
EXTT9=
EXTT10=
EXTT11=
EXTT12=
EXTT13=
EXTT14=
EXTT15=
PLAYORDER=
